<svg viewBox="0 0 10000 10000" xmlns="http://www.w3.org/2000/svg">
<path d="M0,0 l10000,0 l0,10000 l-10000,0 z" fill="white"/>
<path d="M4335,9527 l350,0 l0,365 l-350,0 z" fill="#fe00ff" stroke="black" stroke-width="5"/>
<path d="M0,4848 l540,0 l0,5151 l-540,0 z" fill="#e000ff" stroke="black" stroke-width="5"/>
<path d="M1495,4537 l808,0 l0,706 l-808,0 z" fill="#ff00fe" stroke="black" stroke-width="5"/>
<path d="M1532,1007 l1862,0 l0,890 l-1862,0 z" fill="#ff00fe" stroke="black" stroke-width="5"/>
<path d="M1921,413 l1587,0 l0,594 l-1587,0 z" fill="#a900ff" stroke="black" stroke-width="5"/>
<path d="M6011,7023 l900,0 l0,807 l-900,0 z" fill="#ff00fe" stroke="black" stroke-width="5"/>
<path d="M6505,24 l1415,0 l0,1576 l-1415,0 z" fill="#ff00fe" stroke="black" stroke-width="5"/>
<path d="M540,5243 l1834,0 l0,1151 l-1834,0 z" fill="#ad00ff" stroke="black" stroke-width="5"/>
<path d="M7982,6893 l2017,0 l0,1006 l-2017,0 z" fill="#fc00ff" stroke="black" stroke-width="5"/>
<path d="M5710,433 l158,0 l0,195 l-158,0 z" fill="#ff00fe" stroke="black" stroke-width="5"/>
<path d="M2226,1897 l1766,0 l0,1380 l-1766,0 z" fill="#6400ff" stroke="black" stroke-width="5"/>
<path d="M990,9298 l412,0 l0,403 l-412,0 z" fill="#fe00ff" stroke="black" stroke-width="5"/>
<path d="M7120,4119 l2879,0 l0,1147 l-2879,0 z" fill="#dd00ff" stroke="black" stroke-width="5"/>
<path d="M3553,7810 l565,0 l0,540 l-565,0 z" fill="#ff00fe" stroke="black" stroke-width="5"/>
<path d="M6665,8489 l83,0 l0,90 l-83,0 z" fill="#fe00ff" stroke="black" stroke-width="5"/>
<path d="M3398,4553 l666,0 l0,1611 l-666,0 z" fill="#5700ff" stroke="black" stroke-width="5"/>
<path d="M4064,4582 l776,0 l0,1577 l-776,0 z" fill="#fe00ff" stroke="black" stroke-width="5"/>
<path d="M9470,9672 l314,0 l0,264 l-314,0 z" fill="#fe00ff" stroke="black" stroke-width="5"/>
<path d="M1674,531 l247,0 l0,235 l-247,0 z" fill="#fe00ff" stroke="black" stroke-width="5"/>
<path d="M5390,4577 l478,0 l0,2615 l-478,0 z" fill="#ff00fe" stroke="black" stroke-width="5"/>
<path d="M6648,2958 l886,0 l0,932 l-886,0 z" fill="#ff00fe" stroke="black" stroke-width="5"/>
<path d="M1805,2178 l421,0 l0,412 l-421,0 z" fill="#ff00fe" stroke="black" stroke-width="5"/>
<path d="M7912,5266 l1158,0 l0,968 l-1158,0 z" fill="#ff00fe" stroke="black" stroke-width="5"/>
<path d="M4221,6309 l1169,0 l0,2041 l-1169,0 z" fill="#e600ff" stroke="black" stroke-width="5"/>
<path d="M1183,7833 l624,0 l0,1465 l-624,0 z" fill="#8200ff" stroke="black" stroke-width="5"/>
<path d="M2374,4321 l1024,0 l0,1708 l-1024,0 z" fill="#ff00fe" stroke="black" stroke-width="5"/>
<path d="M7017,6900 l965,0 l0,2229 l-965,0 z" fill="#ff00fe" stroke="black" stroke-width="5"/>
<path d="M540,7606 l643,0 l0,1574 l-643,0 z" fill="#fe00ff" stroke="black" stroke-width="5"/>
<path d="M5416,2664 l1232,0 l0,1777 l-1232,0 z" fill="#fe00ff" stroke="black" stroke-width="5"/>
<path d="M2780,8350 l1555,0 l0,1649 l-1555,0 z" fill="#ee00ff" stroke="black" stroke-width="5"/>
<path d="M5868,5748 l427,0 l0,479 l-427,0 z" fill="#ff00fe" stroke="black" stroke-width="5"/>
<path d="M6546,7911 l471,0 l0,489 l-471,0 z" fill="#fe00ff" stroke="black" stroke-width="5"/>
<path d="M4840,4553 l550,0 l0,1756 l-550,0 z" fill="#6000ff" stroke="black" stroke-width="5"/>
<path d="M5219,1121 l1286,0 l0,1306 l-1286,0 z" fill="#fe00ff" stroke="black" stroke-width="5"/>
<path d="M3508,884 l1711,0 l0,1000 l-1711,0 z" fill="#6200ff" stroke="black" stroke-width="5"/>
<path d="M42,997 l906,0 l0,3851 l-906,0 z" fill="#ff00fe" stroke="black" stroke-width="5"/>
<path d="M3992,2820 l1424,0 l0,1733 l-1424,0 z" fill="#8c00ff" stroke="black" stroke-width="5"/>
<path d="M4133,1884 l1081,0 l0,936 l-1081,0 z" fill="#fe00ff" stroke="black" stroke-width="5"/>
<path d="M7920,1165 l2079,0 l0,1884 l-2079,0 z" fill="#fe00ff" stroke="black" stroke-width="5"/>
<path d="M7534,3049 l2465,0 l0,1070 l-2465,0 z" fill="#6200ff" stroke="black" stroke-width="5"/>
<path d="M3508,0 l2202,0 l0,884 l-2202,0 z" fill="#3b00ff" stroke="black" stroke-width="5"/>
<path d="M8000,7899 l1153,0 l0,1259 l-1153,0 z" fill="#ff00fe" stroke="black" stroke-width="5"/>
<path d="M1183,6394 l1587,0 l0,1439 l-1587,0 z" fill="#ec00ff" stroke="black" stroke-width="5"/>
<path d="M2770,6164 l1451,0 l0,1646 l-1451,0 z" fill="#a600ff" stroke="black" stroke-width="5"/>
<path d="M6987,9156 l402,0 l0,369 l-402,0 z" fill="#ff00fe" stroke="black" stroke-width="5"/>
<path d="M3153,3277 l745,0 l0,748 l-745,0 z" fill="#fe00ff" stroke="black" stroke-width="5"/>
<path d="M8607,9850 l121,0 l0,141 l-121,0 z" fill="#fe00ff" stroke="black" stroke-width="5"/>
<path d="M7741,6234 l743,0 l0,659 l-743,0 z" fill="#fe00ff" stroke="black" stroke-width="5"/>
<path d="M0,0 l3508,0 l0,413 l-3508,0 z" fill="#2600ff" stroke="black" stroke-width="5"/>
<path d="M965,4641 l530,0 l0,528 l-530,0 z" fill="#fe00ff" stroke="black" stroke-width="5"/>
<path d="M6648,4017 l472,0 l0,505 l-472,0 z" fill="#fe00ff" stroke="black" stroke-width="5"/>
<path d="M1807,8093 l973,0 l0,1784 l-973,0 z" fill="#fe00ff" stroke="black" stroke-width="5"/>
<path d="M4305,9790 l60,0 l0,60 l-60,0 z" fill="green"/>
<path d="M4335,9820 l175,-110.5" stroke="black" stroke-width="5"/>
<path d="M29,8198 l60,0 l0,60 l-60,0 z" fill="green"/>
<path d="M59,8228 l211,-804.5" stroke="black" stroke-width="5"/>
<path d="M1828,5212 l60,0 l0,60 l-60,0 z" fill="green"/>
<path d="M1858,5242 l41,-352" stroke="black" stroke-width="5"/>
<path d="M2338,1087 l60,0 l0,60 l-60,0 z" fill="green"/>
<path d="M2368,1117 l95,335" stroke="black" stroke-width="5"/>
<path d="M2477,530 l60,0 l0,60 l-60,0 z" fill="green"/>
<path d="M2507,560 l207.5,150" stroke="black" stroke-width="5"/>
<path d="M6503,7679 l60,0 l0,60 l-60,0 z" fill="green"/>
<path d="M6533,7709 l-72,-282.5" stroke="black" stroke-width="5"/>
<path d="M6710,860 l60,0 l0,60 l-60,0 z" fill="green"/>
<path d="M6740,890 l472.5,-78" stroke="black" stroke-width="5"/>
<path d="M1438,5634 l60,0 l0,60 l-60,0 z" fill="green"/>
<path d="M1468,5664 l-11,154.5" stroke="black" stroke-width="5"/>
<path d="M8266,7240 l60,0 l0,60 l-60,0 z" fill="green"/>
<path d="M8296,7270 l694.5,126" stroke="black" stroke-width="5"/>
<path d="M5680,548 l60,0 l0,60 l-60,0 z" fill="green"/>
<path d="M5710,578 l79,-47.5" stroke="black" stroke-width="5"/>
<path d="M3214,2300 l60,0 l0,60 l-60,0 z" fill="green"/>
<path d="M3244,2330 l-135,257" stroke="black" stroke-width="5"/>
<path d="M969,9268 l60,0 l0,60 l-60,0 z" fill="green"/>
<path d="M999,9298 l197,201.5" stroke="black" stroke-width="5"/>
<path d="M8352,4995 l60,0 l0,60 l-60,0 z" fill="green"/>
<path d="M8382,5025 l177.5,-332.5" stroke="black" stroke-width="5"/>
<path d="M3698,8130 l60,0 l0,60 l-60,0 z" fill="green"/>
<path d="M3728,8160 l107.5,-80" stroke="black" stroke-width="5"/>
<path d="M6687,8480 l60,0 l0,60 l-60,0 z" fill="green"/>
<path d="M6717,8510 l-10.5,24" stroke="black" stroke-width="5"/>
<path d="M3421,5497 l60,0 l0,60 l-60,0 z" fill="green"/>
<path d="M3451,5527 l280,-168.5" stroke="black" stroke-width="5"/>
<path d="M4653,5254 l60,0 l0,60 l-60,0 z" fill="green"/>
<path d="M4683,5284 l-231,86.5" stroke="black" stroke-width="5"/>
<path d="M9611,9823 l60,0 l0,60 l-60,0 z" fill="green"/>
<path d="M9641,9853 l-14,-49" stroke="black" stroke-width="5"/>
<path d="M1890,569 l60,0 l0,60 l-60,0 z" fill="green"/>
<path d="M1920,599 l-122.5,49.5" stroke="black" stroke-width="5"/>
<path d="M5533,5909 l60,0 l0,60 l-60,0 z" fill="green"/>
<path d="M5563,5939 l66,-54.5" stroke="black" stroke-width="5"/>
<path d="M7376,3428 l60,0 l0,60 l-60,0 z" fill="green"/>
<path d="M7406,3458 l-315,-34" stroke="black" stroke-width="5"/>
<path d="M2195,2424 l60,0 l0,60 l-60,0 z" fill="green"/>
<path d="M2225,2454 l-209.5,-70" stroke="black" stroke-width="5"/>
<path d="M8434,5358 l60,0 l0,60 l-60,0 z" fill="green"/>
<path d="M8464,5388 l27,362" stroke="black" stroke-width="5"/>
<path d="M4758,6442 l60,0 l0,60 l-60,0 z" fill="green"/>
<path d="M4788,6472 l17.5,857.5" stroke="black" stroke-width="5"/>
<path d="M1420,8645 l60,0 l0,60 l-60,0 z" fill="green"/>
<path d="M1450,8675 l45,-109.5" stroke="black" stroke-width="5"/>
<path d="M3367,5448 l60,0 l0,60 l-60,0 z" fill="green"/>
<path d="M3397,5478 l-511,-303" stroke="black" stroke-width="5"/>
<path d="M7349,8003 l60,0 l0,60 l-60,0 z" fill="green"/>
<path d="M7379,8033 l120.5,-18.5" stroke="black" stroke-width="5"/>
<path d="M913,8220 l60,0 l0,60 l-60,0 z" fill="green"/>
<path d="M943,8250 l-81.5,143" stroke="black" stroke-width="5"/>
<path d="M5617,3479 l60,0 l0,60 l-60,0 z" fill="green"/>
<path d="M5647,3509 l385,43.5" stroke="black" stroke-width="5"/>
<path d="M3184,9289 l60,0 l0,60 l-60,0 z" fill="green"/>
<path d="M3214,9319 l343.5,-144.5" stroke="black" stroke-width="5"/>
<path d="M5838,5905 l60,0 l0,60 l-60,0 z" fill="green"/>
<path d="M5868,5935 l213.5,52.5" stroke="black" stroke-width="5"/>
<path d="M6986,8195 l60,0 l0,60 l-60,0 z" fill="green"/>
<path d="M7016,8225 l-234.5,-69.5" stroke="black" stroke-width="5"/>
<path d="M5185,5736 l60,0 l0,60 l-60,0 z" fill="green"/>
<path d="M5215,5766 l-100,-335" stroke="black" stroke-width="5"/>
<path d="M5645,1095 l60,0 l0,60 l-60,0 z" fill="green"/>
<path d="M5675,1125 l187,649" stroke="black" stroke-width="5"/>
<path d="M4404,1456 l60,0 l0,60 l-60,0 z" fill="green"/>
<path d="M4434,1486 l-70.5,-102" stroke="black" stroke-width="5"/>
<path d="M103,4817 l60,0 l0,60 l-60,0 z" fill="green"/>
<path d="M133,4847 l362,-1924.5" stroke="black" stroke-width="5"/>
<path d="M5093,3770 l60,0 l0,60 l-60,0 z" fill="green"/>
<path d="M5123,3800 l-419,-113.5" stroke="black" stroke-width="5"/>
<path d="M4410,1963 l60,0 l0,60 l-60,0 z" fill="green"/>
<path d="M4440,1993 l233.5,359" stroke="black" stroke-width="5"/>
<path d="M9015,3018 l60,0 l0,60 l-60,0 z" fill="green"/>
<path d="M9045,3048 l-85.5,-941" stroke="black" stroke-width="5"/>
<path d="M8960,3194 l60,0 l0,60 l-60,0 z" fill="green"/>
<path d="M8990,3224 l-223.5,360" stroke="black" stroke-width="5"/>
<path d="M5146,511 l60,0 l0,60 l-60,0 z" fill="green"/>
<path d="M5176,541 l-567,-99" stroke="black" stroke-width="5"/>
<path d="M8111,7869 l60,0 l0,60 l-60,0 z" fill="green"/>
<path d="M8141,7899 l435.5,629.5" stroke="black" stroke-width="5"/>
<path d="M1695,6898 l60,0 l0,60 l-60,0 z" fill="green"/>
<path d="M1725,6928 l251.5,185.5" stroke="black" stroke-width="5"/>
<path d="M3880,6602 l60,0 l0,60 l-60,0 z" fill="green"/>
<path d="M3910,6632 l-414.5,355" stroke="black" stroke-width="5"/>
<path d="M7096,9259 l60,0 l0,60 l-60,0 z" fill="green"/>
<path d="M7126,9289 l62,51.5" stroke="black" stroke-width="5"/>
<path d="M3748,3247 l60,0 l0,60 l-60,0 z" fill="green"/>
<path d="M3778,3277 l-252.5,374" stroke="black" stroke-width="5"/>
<path d="M8606,9837 l60,0 l0,60 l-60,0 z" fill="green"/>
<path d="M8636,9867 l31.5,53.5" stroke="black" stroke-width="5"/>
<path d="M7896,6845 l60,0 l0,60 l-60,0 z" fill="green"/>
<path d="M7926,6875 l186.5,-311.5" stroke="black" stroke-width="5"/>
<path d="M2478,44 l60,0 l0,60 l-60,0 z" fill="green"/>
<path d="M2508,74 l-754,132.5" stroke="black" stroke-width="5"/>
<path d="M935,4992 l60,0 l0,60 l-60,0 z" fill="green"/>
<path d="M965,5022 l265,-117" stroke="black" stroke-width="5"/>
<path d="M6633,4025 l60,0 l0,60 l-60,0 z" fill="green"/>
<path d="M6663,4055 l221,214.5" stroke="black" stroke-width="5"/>
<path d="M1833,8376 l60,0 l0,60 l-60,0 z" fill="green"/>
<path d="M1863,8406 l430.5,579" stroke="black" stroke-width="5"/>
<text font-size="196.116135138184" text-anchor="middle" x="4510" y="9778.140647298364">
0
</text>
<text font-size="196.116135138184" text-anchor="middle" x="270" y="7492.1406472983645">
1
</text>
<text font-size="196.116135138184" text-anchor="middle" x="1899" y="4958.6406472983645">
2
</text>
<text font-size="196.116135138184" text-anchor="middle" x="2463" y="1520.6406472983645">
3
</text>
<text font-size="196.116135138184" text-anchor="middle" x="2714.5" y="778.6406472983645">
4
</text>
<text font-size="196.116135138184" text-anchor="middle" x="6461" y="7495.1406472983645">
5
</text>
<text font-size="196.116135138184" text-anchor="middle" x="7212.5" y="880.6406472983645">
6
</text>
<text font-size="196.116135138184" text-anchor="middle" x="1457" y="5887.1406472983645">
7
</text>
<text font-size="196.116135138184" text-anchor="middle" x="8990.5" y="7464.6406472983645">
8
</text>
<text font-size="196.116135138184" text-anchor="middle" x="5789" y="599.1406472983645">
9
</text>
<text font-size="196.116135138184" text-anchor="middle" x="3109" y="2655.6406472983645">
10
</text>
<text font-size="196.116135138184" text-anchor="middle" x="1196" y="9568.140647298364">
11
</text>
<text font-size="196.116135138184" text-anchor="middle" x="8559.5" y="4761.1406472983645">
12
</text>
<text font-size="196.116135138184" text-anchor="middle" x="3835.5" y="8148.6406472983645">
13
</text>
<text font-size="196.116135138184" text-anchor="middle" x="6706.5" y="8602.640647298364">
14
</text>
<text font-size="196.116135138184" text-anchor="middle" x="3731" y="5427.1406472983645">
15
</text>
<text font-size="196.116135138184" text-anchor="middle" x="4452" y="5439.1406472983645">
16
</text>
<text font-size="196.116135138184" text-anchor="middle" x="9627" y="9872.640647298364">
17
</text>
<text font-size="196.116135138184" text-anchor="middle" x="1797.5" y="717.1406472983645">
18
</text>
<text font-size="196.116135138184" text-anchor="middle" x="5629" y="5953.1406472983645">
19
</text>
<text font-size="196.116135138184" text-anchor="middle" x="7091" y="3492.6406472983645">
20
</text>
<text font-size="196.116135138184" text-anchor="middle" x="2015.5" y="2452.6406472983645">
21
</text>
<text font-size="196.116135138184" text-anchor="middle" x="8491" y="5818.6406472983645">
22
</text>
<text font-size="196.116135138184" text-anchor="middle" x="4805.5" y="7398.1406472983645">
23
</text>
<text font-size="196.116135138184" text-anchor="middle" x="1495" y="8634.140647298364">
24
</text>
<text font-size="196.116135138184" text-anchor="middle" x="2886" y="5243.6406472983645">
25
</text>
<text font-size="196.116135138184" text-anchor="middle" x="7499.5" y="8083.1406472983645">
26
</text>
<text font-size="196.116135138184" text-anchor="middle" x="861.5" y="8461.640647298364">
27
</text>
<text font-size="196.116135138184" text-anchor="middle" x="6032" y="3621.1406472983645">
28
</text>
<text font-size="196.116135138184" text-anchor="middle" x="3557.5" y="9243.140647298364">
29
</text>
<text font-size="196.116135138184" text-anchor="middle" x="6081.5" y="6056.1406472983645">
30
</text>
<text font-size="196.116135138184" text-anchor="middle" x="6781.5" y="8224.140647298364">
31
</text>
<text font-size="196.116135138184" text-anchor="middle" x="5115" y="5499.6406472983645">
32
</text>
<text font-size="196.116135138184" text-anchor="middle" x="5862" y="1842.6406472983645">
33
</text>
<text font-size="196.116135138184" text-anchor="middle" x="4363.5" y="1452.6406472983645">
34
</text>
<text font-size="196.116135138184" text-anchor="middle" x="495" y="2991.1406472983645">
35
</text>
<text font-size="196.116135138184" text-anchor="middle" x="4704" y="3755.1406472983645">
36
</text>
<text font-size="196.116135138184" text-anchor="middle" x="4673.5" y="2420.6406472983645">
37
</text>
<text font-size="196.116135138184" text-anchor="middle" x="8959.5" y="2175.6406472983645">
38
</text>
<text font-size="196.116135138184" text-anchor="middle" x="8766.5" y="3652.6406472983645">
39
</text>
<text font-size="196.116135138184" text-anchor="middle" x="4609" y="510.6406472983644">
40
</text>
<text font-size="196.116135138184" text-anchor="middle" x="8576.5" y="8597.140647298364">
41
</text>
<text font-size="196.116135138184" text-anchor="middle" x="1976.5" y="7182.1406472983645">
42
</text>
<text font-size="196.116135138184" text-anchor="middle" x="3495.5" y="7055.6406472983645">
43
</text>
<text font-size="196.116135138184" text-anchor="middle" x="7188" y="9409.140647298364">
44
</text>
<text font-size="196.116135138184" text-anchor="middle" x="3525.5" y="3719.6406472983645">
45
</text>
<text font-size="196.116135138184" text-anchor="middle" x="8667.5" y="9989.140647298364">
46
</text>
<text font-size="196.116135138184" text-anchor="middle" x="8112.5" y="6632.1406472983645">
47
</text>
<text font-size="196.116135138184" text-anchor="middle" x="1754" y="275.1406472983644">
48
</text>
<text font-size="196.116135138184" text-anchor="middle" x="1230" y="4973.6406472983645">
49
</text>
<text font-size="196.116135138184" text-anchor="middle" x="6884" y="4338.1406472983645">
50
</text>
<text font-size="196.116135138184" text-anchor="middle" x="2293.5" y="9053.640647298364">
51
</text>
</svg>